<svg width="117" height="29" viewBox="0 0 117 29" fill="none" xmlns="http://www.w3.org/2000/svg">
<rect width="117" height="29" rx="6" fill="#6ECA99"/>
<path d="M14.2179 20V9.78H21.6379V12.02H17.0179V13.672H21.3579V15.828H17.0179V17.76H21.6379V20H14.2179ZM23.1867 20V9.78H26.6587L28.4927 15.24H28.5207L30.3547 9.78H33.8267V20H31.0267V14.12H30.9987L29.7667 17.83H27.2467L26.0147 14.12H25.9867V20H23.1867ZM35.505 20V9.78H42.925V12.02H38.305V13.672H42.645V15.828H38.305V17.76H42.925V20H35.505ZM44.4738 20V9.78H48.0018C49.5605 9.78 50.7131 10.0507 51.4598 10.592C52.2158 11.1333 52.5938 11.9593 52.5938 13.07C52.5938 14.162 52.2485 14.9973 51.5578 15.576C50.8765 16.1547 49.8825 16.444 48.5758 16.444H45.8738V14.4H48.1418C48.6925 14.4 49.0938 14.3067 49.3458 14.12C49.5978 13.924 49.7238 13.6207 49.7238 13.21C49.7238 12.7993 49.5978 12.5007 49.3458 12.314C49.0938 12.118 48.6925 12.02 48.1418 12.02H47.2738V20H44.4738ZM50.2138 20L46.5878 15.422H49.5558L53.2938 20H50.2138ZM53.7119 20L56.8619 9.78H60.6419L63.7919 20H60.7119L58.7659 12.16H58.7379L56.7919 20H53.7119ZM56.0219 18.11V15.8H61.4819V18.11H56.0219ZM64.7218 20V9.78H67.5918V17.62H72.4218V20H64.7218ZM73.5949 20V9.78H77.0949C78.9055 9.78 80.2215 10.186 81.0429 10.998C81.8642 11.8007 82.2749 13.098 82.2749 14.89C82.2749 16.682 81.8642 17.984 81.0429 18.796C80.2215 19.5987 78.9055 20 77.0949 20H73.5949ZM77.2769 17.76C77.8275 17.76 78.2569 17.676 78.5649 17.508C78.8729 17.34 79.0875 17.046 79.2089 16.626C79.3395 16.206 79.4049 15.6227 79.4049 14.876C79.4049 14.1387 79.3395 13.5647 79.2089 13.154C79.0875 12.734 78.8729 12.44 78.5649 12.272C78.2569 12.104 77.8275 12.02 77.2769 12.02H76.3949V17.76H77.2769ZM87.1711 20V9.78H90.6991C92.2577 9.78 93.4104 10.0507 94.1571 10.592C94.9131 11.1333 95.2911 11.9593 95.2911 13.07C95.2911 14.162 94.9457 14.9973 94.2551 15.576C93.5737 16.1547 92.5797 16.444 91.2731 16.444H88.5711V14.4H90.8391C91.3897 14.4 91.7911 14.3067 92.0431 14.12C92.2951 13.924 92.4211 13.6207 92.4211 13.21C92.4211 12.7993 92.2951 12.5007 92.0431 12.314C91.7911 12.118 91.3897 12.02 90.8391 12.02H89.9711V20H87.1711ZM92.9111 20L89.2851 15.422H92.2531L95.9911 20H92.9111ZM97.1652 20V9.78H100.553C102.131 9.78 103.311 10.0927 104.095 10.718C104.889 11.334 105.285 12.258 105.285 13.49C105.285 14.694 104.917 15.6133 104.179 16.248C103.442 16.8827 102.378 17.2 100.987 17.2H98.5652V14.96H100.623C101.239 14.96 101.692 14.8433 101.981 14.61C102.271 14.3673 102.415 13.994 102.415 13.49C102.415 12.986 102.271 12.6173 101.981 12.384C101.692 12.1413 101.239 12.02 100.623 12.02H99.9652V20H97.1652Z" fill="white" fill-opacity="0.81"/>
</svg>
